<svg width="580" height="377" viewBox="0 0 580 377" fill="none" xmlns="http://www.w3.org/2000/svg">
    <rect width="580" height="377" fill="#FFFCF3"/>
    <circle cx="216.5" cy="190.5" r="160.5" fill="#F1A56D"/>
    <circle cx="216" cy="189" r="98" fill="#FBF3DC"/>
    <circle cx="217.5" cy="188.5" r="43.5" fill="#D9D9D9"/>
    <path d="M392.395 255C473.547 253.5 525.58 167.5 580 210V320H0V197C8.43347 216.333 35.6115 255 76.856 255C128.412 255 167.078 190 222.93 190C278.782 190 311.243 256.5 392.395 255Z" fill="#EF8435"/>
    <path d="M187.605 312C106.453 310.5 54.4198 224.5 0 267V377H580V254C571.567 273.333 544.388 312 503.144 312C451.588 312 412.922 247 357.07 247C301.218 247 268.757 313.5 187.605 312Z" fill="#FBF3DC"/>
</svg>
